<?xml version="1.0" encoding="utf-8"?>
<!-- Generator: Adobe Illustrator 17.0.0, SVG Export Plug-In . SVG Version: 6.00 Build 0)  -->
<!DOCTYPE svg PUBLIC "-//W3C//DTD SVG 1.1//EN" "http://www.w3.org/Graphics/SVG/1.1/DTD/svg11.dtd">
<svg version="1.1" id="Layer_1" xmlns="http://www.w3.org/2000/svg" xmlns:xlink="http://www.w3.org/1999/xlink" x="0px" y="0px"
	 width="92px" height="80px" viewBox="0 0 92 80" enable-background="new 0 0 92 80" xml:space="preserve">
<g>
	<rect x="13" y="12" fill="#231F20" width="20" height="3"/>
	<rect x="13" y="19" fill="#231F20" width="20" height="3"/>
	<rect x="13" y="26" fill="#231F20" width="20" height="3"/>
</g>
<g>
	<rect x="13" y="52" fill="#231F20" width="20" height="3"/>
	<rect x="13" y="59" fill="#231F20" width="20" height="3"/>
	<rect x="13" y="66" fill="#231F20" width="20" height="3"/>
</g>
<rect x="58.996" y="18.504" transform="matrix(0.7071 0.7071 -0.7071 0.7071 34.352 -42.9264)" fill="#231F20" width="19.993" height="2.999"/>
<rect x="59.006" y="18.507" transform="matrix(0.7071 -0.7071 0.7071 0.7071 6.0636 54.652)" fill="#231F20" width="19.993" height="2.999"/>
<rect x="58.998" y="58.501" transform="matrix(0.7071 0.7071 -0.7071 0.7071 62.635 -31.2126)" fill="#231F20" width="19.993" height="3"/>
<rect x="59.006" y="58.504" transform="matrix(0.7071 -0.7071 0.7071 0.7071 -22.2183 66.3663)" fill="#231F20" width="19.993" height="2.999"/>
</svg>
